<?xml version="1.0" standalone="no"?>
<!DOCTYPE svg PUBLIC "-//W3C//DTD SVG 20010904//EN"
 "http://www.w3.org/TR/2001/REC-SVG-20010904/DTD/svg10.dtd">
<svg version="1.0" xmlns="http://www.w3.org/2000/svg"
 width="199.000000pt" height="199.000000pt" viewBox="0 0 199.000000 199.000000"
 preserveAspectRatio="xMidYMid meet">
<metadata>
Created by potrace 1.14, written by Peter Selinger 2001-2017
</metadata>
<g transform="translate(0.000000,199.000000) scale(0.100000,-0.100000)"
fill="#000000" stroke="none">
<path d="M0 1608 c1 -347 2 -383 18 -394 9 -7 13 -16 9 -20 -4 -5 -12 -2 -17
6 -7 10 -10 -1 -10 -36 0 -39 4 -53 16 -58 14 -5 15 -4 4 9 -10 13 -9 15 9 15
23 0 27 -10 9 -28 -8 -8 -8 -15 3 -28 12 -14 11 -16 -6 -12 -12 2 -19 10 -17
21 2 9 -2 17 -8 17 -14 0 -13 -37 3 -44 9 -5 9 -7 0 -12 -17 -7 -17 -41 0 -47
9 -4 8 -6 -2 -6 -11 -1 -11 -4 -1 -16 7 -8 8 -15 3 -15 -5 0 -10 -6 -10 -14 0
-15 134 -82 144 -73 3 3 -5 16 -16 29 -12 12 -17 24 -11 26 16 6 12 20 -7 24
-15 3 -15 5 -1 18 16 16 20 50 6 50 -4 0 -8 3 -8 8 0 4 13 7 29 8 21 1 28 -3
24 -12 -7 -19 7 -17 27 3 15 16 15 18 0 33 -28 28 -49 31 -60 9 -6 -11 -15
-17 -21 -14 -5 4 -7 11 -3 16 3 6 -4 19 -17 30 -19 16 -20 19 -4 19 14 0 15 3
5 15 -7 8 -10 21 -7 30 4 8 1 17 -5 21 -7 4 -8 3 -4 -4 4 -7 2 -12 -3 -12 -6
0 -11 -7 -11 -15 0 -17 -26 -20 -36 -4 -3 6 -2 14 3 18 5 3 13 14 16 25 5 13
14 17 31 14 17 -4 23 -1 19 9 -3 7 0 13 5 13 14 0 7 67 -8 85 -16 19 -32 9
-25 -16 4 -11 2 -19 -5 -19 -6 0 -9 -4 -6 -9 8 -12 -21 -34 -34 -26 -8 5 -8
11 -1 19 6 7 8 16 5 19 -4 3 1 13 9 22 9 8 14 22 11 29 -6 17 27 31 36 15 10
-15 16 -2 24 53 4 26 13 49 21 52 8 3 15 14 15 25 0 38 86 48 146 16 42 -22
67 -20 59 5 -3 11 -2 20 3 20 6 0 9 14 8 31 -2 20 3 33 13 37 27 10 49 35 44
48 -3 8 0 14 6 14 6 0 11 11 11 25 0 15 -6 25 -14 25 -13 0 -26 20 -26 41 0
18 21 8 29 -15 5 -13 17 -26 26 -30 9 -3 14 -2 11 2 -2 4 -1 14 5 22 7 12 9
12 9 -4 0 -15 3 -16 15 -6 13 10 15 9 15 -9 0 -12 -6 -21 -15 -21 -8 0 -15 -4
-15 -10 0 -5 4 -10 10 -10 5 0 7 -6 4 -14 -3 -8 7 -18 27 -26 31 -13 31 -14 9
-22 -14 -5 -27 -5 -34 2 -15 15 -30 12 -17 -4 14 -17 -2 -31 -24 -22 -15 6
-16 -18 -2 -41 4 -6 3 -23 -3 -38 -10 -26 -9 -27 12 -20 13 3 30 8 38 9 8 2
23 7 33 11 10 4 28 2 40 -4 21 -11 21 -11 -5 -8 -44 6 -33 -6 35 -38 48 -23
69 -41 95 -79 17 -26 32 -42 32 -35 0 30 -75 161 -112 195 -41 37 -43 43 -11
48 10 2 17 10 17 19 -1 8 4 13 11 11 15 -6 12 43 -4 59 -6 6 -11 16 -11 22 0
5 5 3 10 -5 8 -12 10 -11 10 8 0 12 5 22 11 22 6 0 7 5 2 13 -12 19 -14 47 -3
47 6 0 10 -4 10 -9 0 -6 9 -9 20 -8 11 1 19 6 17 12 -4 11 -47 16 -62 7 -5 -4
-19 -8 -30 -9 -10 -2 -29 -12 -40 -23 -24 -23 -41 -26 -47 -8 -3 7 -13 13 -23
13 -10 0 -20 6 -23 14 -3 10 2 11 19 6 21 -7 22 -6 10 9 -7 9 -10 16 -5 16 4
0 3 5 -4 12 -16 16 -16 58 0 58 6 0 3 7 -8 15 -18 14 -18 15 6 12 34 -3 38 26
4 42 -24 10 -26 10 -20 -6 4 -10 4 -15 1 -11 -10 9 -66 -12 -59 -23 3 -5 1
-15 -3 -23 -6 -11 -12 -10 -27 5 -11 11 -15 19 -9 19 16 0 13 48 -3 54 -8 3
-14 15 -14 26 0 19 -6 20 -175 20 l-175 0 0 -382z m380 242 c0 -5 -7 -7 -15
-4 -8 4 -12 10 -9 15 6 11 24 2 24 -11z m50 -19 c0 -11 5 -23 10 -26 6 -3 10
-11 10 -16 0 -5 -11 -2 -24 6 -21 14 -24 14 -30 0 -3 -9 -10 -13 -16 -10 -5 3
-10 1 -10 -5 0 -6 -4 -8 -10 -5 -5 3 -10 2 -10 -3 0 -6 -9 -8 -19 -5 -26 7
-48 -32 -30 -53 9 -11 8 -14 -4 -14 -10 0 -13 -6 -10 -20 3 -11 0 -20 -6 -20
-6 0 -11 6 -11 14 0 9 -12 12 -37 11 -60 -3 -64 -5 -59 -14 7 -11 -32 -56 -41
-48 -3 4 7 25 22 48 28 40 70 69 98 69 8 0 14 7 13 16 -1 11 9 18 28 21 16 2
35 11 43 19 8 8 18 12 22 9 5 -2 19 6 32 19 30 30 39 31 39 7z m-256 -80 c-13
-15 -20 -17 -26 -8 -12 19 -9 27 15 36 28 11 33 -2 11 -28z m246 18 c0 -6 -4
-7 -10 -4 -5 3 -10 11 -10 16 0 6 5 7 10 4 6 -3 10 -11 10 -16z m-83 -45 c-9
-9 -28 6 -21 18 4 6 10 6 17 -1 6 -6 8 -13 4 -17z m219 -92 c0 -7 -6 -10 -13
-7 -8 3 -19 5 -24 5 -5 0 -9 13 -9 30 l0 29 23 -22 c12 -12 23 -28 23 -35z
m-216 38 c0 -5 -2 -10 -4 -10 -3 0 -8 5 -11 10 -3 6 -1 10 4 10 6 0 11 -4 11
-10z m-200 -72 c0 -4 -4 -8 -10 -8 -5 0 -16 -12 -23 -26 -11 -22 -15 -24 -20
-10 -4 9 -1 16 4 16 6 0 9 9 6 20 -4 16 0 19 19 18 13 -1 24 -6 24 -10z m190
-18 c0 -5 -4 -10 -10 -10 -5 0 -10 5 -10 10 0 6 5 10 10 10 6 0 10 -4 10 -10z
m216 -5 c10 -8 14 -15 8 -15 -5 0 -19 7 -30 15 -10 8 -14 15 -8 15 5 0 19 -7
30 -15z m-456 -85 c0 -5 -2 -10 -4 -10 -3 0 -8 5 -11 10 -3 6 -1 10 4 10 6 0
11 -4 11 -10z m-25 -80 c3 -5 -1 -10 -10 -10 -9 0 -13 5 -10 10 3 6 8 10 10
10 2 0 7 -4 10 -10z"/>
<path d="M394 1974 c4 -12 2 -15 -9 -10 -24 9 -18 -10 9 -27 23 -15 24 -15 30
9 8 29 1 44 -21 44 -10 0 -13 -6 -9 -16z"/>
<path d="M515 1972 c4 -9 8 -22 9 -29 3 -18 16 -28 16 -13 0 10 3 11 11 3 14
-14 42 -5 33 9 -4 6 0 15 7 20 10 7 9 8 -6 4 -11 -3 -33 1 -49 9 -26 14 -28
14 -21 -3z"/>
<path d="M633 1951 c1 -24 4 -35 9 -28 11 17 10 55 -1 62 -6 3 -9 -11 -8 -34z"/>
<path d="M677 1970 c-3 -11 -4 -31 -2 -45 1 -16 -3 -25 -11 -25 -17 0 -18 -12
-3 -27 7 -7 20 -29 30 -50 11 -21 16 -27 13 -14 -4 14 -2 21 4 17 5 -3 12 1
16 9 8 23 46 19 46 -5 0 -13 -5 -18 -15 -14 -17 7 -21 -11 -5 -21 17 -10 40
15 40 42 0 16 -7 27 -20 30 -11 3 -20 13 -19 22 0 10 2 11 6 4 2 -7 11 -13 19
-13 11 0 13 10 8 43 -8 61 -11 67 -31 66 -11 0 -13 -3 -5 -6 6 -2 12 -12 12
-20 0 -14 -3 -14 -24 1 -18 12 -26 12 -29 3 -3 -7 -6 -5 -6 6 -1 23 -17 22
-24 -3z m70 -35 c8 -9 13 -18 11 -21 -3 -2 -13 5 -23 16 -21 23 -11 27 12 5z
m-30 -22 c3 -7 -3 -9 -16 -6 -12 3 -21 10 -21 15 0 13 32 6 37 -9z"/>
<path d="M800 1968 c0 -12 3 -18 7 -15 9 9 32 -24 33 -47 0 -31 18 -5 20 29 3
45 1 55 -11 55 -6 0 -8 -8 -4 -19 3 -11 1 -22 -4 -26 -6 -3 -13 6 -17 20 -8
31 -24 33 -24 3z"/>
<path d="M880 1936 c0 -30 4 -56 8 -58 12 -4 24 -58 13 -58 -5 0 -12 10 -16
23 -7 19 -9 17 -12 -15 -6 -57 41 -118 54 -69 5 18 6 18 24 3 10 -9 19 -29 19
-45 0 -18 4 -26 11 -21 15 9 1 -36 -17 -54 -8 -7 -14 -24 -14 -37 0 -13 -5
-27 -10 -30 -6 -3 -7 -17 -4 -31 5 -18 1 -31 -15 -45 -11 -11 -21 -30 -21 -42
1 -22 1 -22 14 2 l13 23 6 -23 c4 -14 0 -30 -8 -39 -8 -9 -15 -23 -15 -32 0
-8 -7 -15 -15 -16 -8 -1 -21 -3 -29 -4 -8 -1 -12 -7 -9 -14 2 -6 0 -15 -6 -18
-11 -7 -4 -34 16 -54 11 -11 13 -9 13 12 0 16 6 26 15 26 17 0 20 -17 4 -22
-6 -2 -1 -12 12 -23 l22 -20 -7 23 c-5 13 -3 22 3 22 17 0 13 -57 -4 -64 -8
-3 -15 -11 -15 -17 0 -8 4 -8 15 1 12 10 15 9 15 -4 0 -10 5 -14 10 -11 5 3
10 1 10 -4 0 -6 -4 -11 -9 -11 -5 0 -12 -16 -15 -36 -6 -30 -10 -34 -29 -28
-22 6 -22 6 -2 -13 18 -18 21 -18 32 -4 7 9 13 11 13 5 0 -6 -11 -23 -25 -38
-13 -14 -21 -26 -17 -26 4 0 8 -9 9 -20 2 -20 2 -20 -20 0 -16 16 -18 23 -9
32 7 7 12 17 12 23 -1 5 -10 -1 -21 -14 l-20 -25 21 -16 c29 -22 34 -76 10
-100 -10 -10 -21 -15 -25 -12 -3 4 -3 -1 0 -9 7 -20 -20 -43 -37 -33 -10 6
-10 4 0 -9 8 -9 19 -15 25 -14 6 1 13 -7 15 -17 3 -15 0 -18 -17 -13 -27 7
-27 -4 -1 -26 19 -16 20 -19 5 -34 -9 -9 -14 -25 -12 -35 3 -11 -3 -28 -14
-39 -10 -10 -19 -26 -19 -34 0 -8 -5 -26 -12 -40 l-12 -26 -23 27 c-28 33 -31
54 -4 30 19 -17 19 -17 16 1 -2 10 -4 21 -4 26 -1 4 -8 7 -17 7 -12 0 -11 5 7
20 20 16 21 19 7 20 -11 0 -18 8 -18 19 0 11 -4 23 -10 26 -5 3 -7 0 -4 -8 3
-8 -5 -18 -20 -25 -16 -7 -26 -21 -28 -39 -2 -20 -8 -28 -21 -26 -13 1 -17 -4
-13 -14 5 -12 1 -14 -19 -11 -14 3 -25 1 -25 -3 0 -5 -7 -9 -15 -9 -8 0 -15 9
-15 19 0 18 -17 38 -25 29 -4 -4 31 -107 44 -130 6 -9 13 -37 16 -63 3 -26 13
-59 23 -74 13 -18 17 -39 15 -68 -4 -33 -1 -44 15 -52 18 -9 20 -6 25 31 6 42
20 57 67 70 14 4 58 16 98 28 58 17 76 19 88 9 12 -9 12 -15 2 -27 -10 -12
-10 -16 0 -19 6 -3 12 -9 12 -14 0 -6 -5 -7 -10 -4 -5 3 -10 1 -10 -6 0 -8 -5
-7 -17 2 -13 11 -13 9 3 -15 l19 -30 -23 6 c-26 7 -30 -7 -4 -17 9 -3 19 -7
22 -7 3 -1 10 -7 15 -14 8 -11 36 -19 88 -23 4 -1 7 -6 7 -12 0 -8 -5 -8 -15
1 -9 8 -15 9 -15 2 0 -7 -19 -9 -50 -7 -39 4 -50 1 -50 -10 0 -8 7 -15 15 -15
8 0 15 -4 15 -10 0 -6 9 -6 24 0 18 7 26 5 30 -6 7 -17 46 -19 46 -1 0 25 20
-18 20 -45 0 -33 27 -29 33 5 3 19 6 17 20 -15 9 -21 17 -48 17 -62 0 -14 5
-28 10 -31 14 -9 12 41 -2 65 -10 15 -10 22 0 32 9 9 16 0 33 -40 12 -29 26
-52 31 -52 5 0 6 -4 3 -10 -6 -10 51 -50 72 -50 14 0 -27 103 -52 130 -16 18
-20 40 -7 40 5 0 28 -38 52 -85 24 -47 50 -85 57 -85 11 0 11 4 2 22 -26 50
-128 194 -153 217 -25 24 -36 49 -16 36 9 -5 28 -11 67 -19 7 -1 27 -15 44
-32 18 -16 29 -23 25 -16 -4 6 -2 12 4 12 7 0 9 -7 6 -16 -4 -10 21 -48 72
-109 l77 -94 74 0 75 -1 -79 72 c-127 118 -193 168 -213 161 -9 -3 -14 -2 -9
2 9 10 -21 45 -39 45 -7 0 -25 12 -41 26 -18 17 -35 24 -50 21 -13 -2 -23 -1
-23 3 0 12 -48 18 -58 8 -6 -6 -17 -6 -29 0 -10 6 -31 8 -46 5 -16 -3 -27 -1
-27 6 0 11 9 13 75 16 25 1 39 6 38 13 -4 17 12 15 27 -2 6 -8 18 -12 26 -9 7
3 28 -7 45 -22 22 -18 34 -23 39 -15 6 9 13 9 31 -1 13 -7 28 -12 32 -11 5 1
6 -2 3 -7 -8 -12 62 -83 206 -208 115 -101 118 -103 167 -103 55 0 97 23 150
79 l29 31 -32 25 c-50 38 -155 82 -273 114 -59 17 -128 37 -152 46 -24 8 -54
13 -65 9 -15 -4 -17 -3 -7 4 10 7 0 14 -38 27 -44 14 -76 35 -55 35 10 0 366
-117 445 -146 37 -14 95 -42 130 -63 51 -31 66 -36 76 -26 7 7 18 15 25 18 9
3 10 8 3 15 -17 17 -508 172 -545 172 -6 0 -30 10 -53 21 -23 12 -64 27 -92
34 -27 7 -40 14 -28 14 13 1 49 -8 80 -18 32 -11 108 -34 169 -51 61 -17 196
-60 300 -95 l188 -65 23 22 23 21 0 469 c0 373 -3 468 -12 462 -10 -6 -10 -4
0 7 9 9 12 62 12 191 0 136 -3 178 -12 178 -9 0 -8 4 2 10 12 8 13 11 1 19 -9
6 -10 11 -2 15 14 9 15 342 1 351 -7 4 -7 12 0 25 13 24 13 33 0 25 -5 -3 -10
-1 -10 5 0 6 -13 1 -29 -11 -16 -12 -34 -18 -40 -15 -6 4 -9 1 -5 -7 3 -8 -14
-31 -40 -55 -61 -56 -144 -164 -138 -180 2 -7 -1 -11 -7 -10 -6 2 -21 -13 -33
-31 -12 -19 -18 -32 -12 -29 5 4 16 3 24 -3 11 -6 8 -9 -12 -9 -21 0 -28 -5
-28 -19 0 -11 -10 -27 -22 -36 -13 -8 -24 -20 -24 -25 -1 -6 -2 -14 -3 -20 0
-5 -6 -10 -12 -10 -8 0 -7 6 2 18 13 15 12 16 -3 4 -9 -8 -14 -20 -11 -28 3
-7 -2 -17 -11 -20 -9 -3 -14 -9 -11 -14 2 -4 -8 -18 -23 -31 -14 -13 -20 -16
-13 -6 7 9 10 17 7 17 -10 0 12 39 46 82 17 21 26 43 22 49 -4 7 -3 9 3 6 13
-8 67 71 66 96 -1 9 4 17 10 17 7 0 18 9 25 20 7 12 8 20 2 20 -5 0 -10 -4
-10 -10 0 -5 -5 -10 -11 -10 -8 0 -8 5 1 15 7 8 18 15 25 15 18 0 107 108 110
133 1 12 3 25 4 29 0 3 13 20 27 37 l26 31 -191 0 c-199 0 -196 1 -192 -42 1
-10 -5 -28 -13 -40 -9 -12 -16 -31 -16 -41 0 -10 -5 -15 -10 -12 -6 4 -8 10
-5 15 3 5 0 12 -7 16 -7 5 -3 11 13 17 24 10 24 10 2 14 -16 3 -24 14 -29 39
l-6 34 -123 0 c-89 0 -125 -3 -129 -12 -5 -10 -7 -10 -12 0 -9 20 -26 14 -19
-7 4 -13 -1 -27 -14 -40 -21 -21 -29 -61 -13 -61 16 0 22 13 11 26 -9 10 -7
15 4 20 18 7 37 -2 37 -17 0 -6 -4 -8 -8 -5 -5 3 -15 -5 -22 -19 -7 -13 -18
-21 -24 -19 -7 3 -18 -8 -24 -23 l-13 -28 18 22 c13 16 22 20 33 13 13 -8 13
-11 -2 -22 -14 -10 -18 -31 -20 -95 -1 -46 -5 -83 -9 -83 -4 0 -5 -9 -2 -19 3
-13 -2 -21 -17 -26 -15 -5 -19 -10 -11 -15 8 -4 10 -17 5 -33 -6 -25 -15 -32
-37 -28 -5 1 -6 -16 -3 -38 4 -28 1 -43 -9 -51 -10 -8 -15 -9 -15 -2 0 6 4 13
9 17 6 3 6 18 0 37 -5 18 -5 36 0 42 5 6 11 34 14 62 2 29 8 58 13 65 4 7 7
30 5 50 -1 21 3 40 9 44 15 9 12 31 -11 82 -12 26 -17 52 -13 61 6 16 7 15 11
0 3 -10 9 -18 14 -18 5 0 9 -7 9 -16 0 -8 4 -13 10 -9 6 4 6 15 0 30 -7 19 -6
25 5 25 17 0 28 31 19 55 -6 15 -4 16 14 6 15 -8 22 -8 22 -1 0 5 -5 10 -11
10 -5 0 -7 5 -4 10 4 6 -37 10 -114 10 l-121 0 0 -54z m53 -19 c-3 -5 -10 -4
-15 1 -6 6 -7 16 -3 22 6 9 9 9 16 -1 4 -7 5 -17 2 -22z m997 -11 c0 -2 -7 -7
-16 -10 -8 -3 -12 -2 -9 4 6 10 25 14 25 6z m-937 -40 c4 -10 1 -13 -7 -10 -8
3 -16 -4 -19 -17 -4 -14 -11 -20 -21 -16 -10 4 -16 1 -16 -8 0 -8 -5 -15 -11
-15 -6 0 -8 7 -5 16 3 9 6 22 6 30 0 12 4 13 23 3 12 -6 19 -8 15 -4 -8 9 9
35 22 35 4 0 10 -7 13 -14z m615 -9 c5 -24 -15 -21 -21 4 -3 13 -1 19 6 16 7
-2 13 -11 15 -20z m-180 -32 c-3 -3 -9 2 -12 12 -6 14 -5 15 5 6 7 -7 10 -15
7 -18z m-228 -4 c0 -6 -4 -13 -10 -16 -5 -3 -10 1 -10 9 0 9 5 16 10 16 6 0
10 -4 10 -9z m395 -3 c4 4 4 -3 1 -15 -6 -17 -3 -23 8 -23 23 0 20 -17 -4 -23
-20 -5 -24 2 -21 35 2 12 -3 16 -13 12 -9 -3 -16 -2 -16 3 0 17 13 23 25 13 7
-5 15 -6 20 -2z m-200 -8 c3 -5 1 -10 -4 -10 -6 0 -11 5 -11 10 0 6 2 10 4 10
3 0 8 -4 11 -10z m95 -24 c0 -5 8 -15 17 -22 10 -7 16 -15 13 -18 -7 -7 -70
49 -70 63 0 8 6 7 20 -1 11 -7 20 -17 20 -22z m142 12 c-7 -7 -12 -8 -12 -2 0
6 3 14 7 17 3 4 9 5 12 2 2 -3 -1 -11 -7 -17z m-598 -4 c9 -24 7 -28 -9 -14
-17 14 -20 30 -6 30 5 0 12 -7 15 -16z m312 5 c3 -6 -1 -18 -9 -26 -12 -13
-13 -20 -4 -37 7 -11 13 -22 14 -24 1 -2 10 1 21 7 15 8 22 8 25 -2 3 -7 6 -5
6 6 1 9 8 17 18 17 14 0 14 -2 -2 -20 -10 -11 -25 -20 -33 -20 -11 0 -13 -8
-8 -30 6 -32 5 -33 -18 -24 -12 5 -13 10 -5 25 9 18 8 19 -11 7 -11 -7 -23
-23 -26 -35 -4 -13 -10 -21 -14 -18 -5 3 -14 -11 -22 -30 -11 -31 -14 -34 -24
-20 -11 14 -13 12 -19 -14 -4 -17 -11 -31 -17 -31 -5 0 -8 -10 -7 -22 2 -13 1
-27 -2 -33 -4 -5 -9 -22 -13 -37 -6 -27 -39 -41 -35 -15 1 6 1 21 0 32 -1 18
-2 19 -12 3 -15 -27 -29 -22 -28 10 0 23 2 24 8 8 7 -18 8 -18 14 -2 4 10 5
22 1 27 -3 5 -1 9 5 9 6 0 13 11 17 25 3 14 10 25 15 25 5 0 9 10 9 21 0 18 2
19 15 9 12 -10 15 -10 15 3 0 8 7 20 15 27 8 7 15 21 15 31 0 10 8 23 19 28
31 17 54 60 41 76 -8 10 -8 19 0 34 12 23 25 27 36 10z m-100 -26 c-10 -10
-19 5 -10 18 6 11 8 11 12 0 2 -7 1 -15 -2 -18z m134 3 c0 -3 -4 -8 -10 -11
-5 -3 -10 -1 -10 4 0 6 5 11 10 11 6 0 10 -2 10 -4z m60 -10 c0 -3 -4 -8 -10
-11 -5 -3 -10 -1 -10 4 0 6 5 11 10 11 6 0 10 -2 10 -4z m36 -71 c-3 -9 -11
-13 -16 -10 -8 5 -7 11 1 21 14 18 24 11 15 -11z m-36 5 c0 -5 -5 -10 -11 -10
-5 0 -7 5 -4 10 3 6 8 10 11 10 2 0 4 -4 4 -10z m320 -41 c-7 -11 -14 -18 -17
-15 -3 3 0 12 7 21 18 21 23 19 10 -6z m-233 -29 c-17 -28 -27 -25 -14 4 7 13
15 22 19 20 4 -3 2 -14 -5 -24z m28 -7 c-2 -24 -22 -71 -47 -111 -31 -51 -34
-29 -3 25 16 26 24 48 18 50 -6 2 -1 15 11 28 25 30 24 29 21 8z m-169 -39
c-5 -17 -3 -23 4 -19 5 3 10 12 10 20 0 17 17 29 24 17 3 -5 -4 -26 -16 -48
-18 -33 -18 -37 -3 -24 17 14 17 13 7 -7 -16 -30 -15 -38 3 -23 9 7 19 10 22
6 4 -4 3 -10 -3 -14 -11 -7 -38 -52 -39 -64 0 -4 -5 -12 -12 -19 -6 -6 -9 -18
-6 -25 3 -8 -1 -14 -10 -14 -9 0 -16 -12 -19 -30 -3 -17 0 -30 6 -30 6 0 6 -4
-1 -11 -6 -6 -9 -17 -7 -24 7 -17 -26 -55 -46 -55 -12 1 -12 3 3 14 9 7 17 20
17 29 0 14 -3 14 -31 0 -32 -16 -51 -11 -31 9 15 15 16 78 2 78 -5 0 -10 -18
-10 -39 0 -50 -28 -66 -37 -21 -6 34 -23 41 -23 10 0 -11 -4 -20 -10 -20 -15
0 -12 23 6 49 15 21 18 21 26 7 14 -25 29 -19 26 12 -2 29 36 112 52 112 5 0
12 10 15 23 16 56 28 77 46 77 12 0 21 10 25 25 3 14 8 25 11 25 3 0 2 -12 -1
-26z m574 -38 c0 -3 -4 -8 -10 -11 -5 -3 -10 -1 -10 4 0 6 5 11 10 11 6 0 10
-2 10 -4z m-978 -93 c-9 -21 -21 -41 -26 -44 -4 -4 -5 -21 -1 -38 7 -32 -6
-61 -27 -61 -6 0 -4 7 3 16 7 9 12 29 11 45 -2 16 4 43 12 61 9 17 16 37 16
45 0 7 7 13 15 13 13 0 12 -5 -3 -37z m848 0 c-90 -14 -209 -57 -259 -95 -33
-25 -48 -22 -25 5 11 12 26 30 33 40 12 15 12 17 -4 11 -13 -5 -16 -4 -11 4 7
12 56 17 56 6 0 -4 -8 -13 -17 -21 -10 -8 1 -5 25 7 52 25 145 49 192 48 24
-1 27 -2 10 -5z m-680 -37 c0 -34 -14 -86 -22 -86 -6 0 -8 9 -5 20 3 11 0 18
-7 17 -6 -1 -10 7 -8 18 5 34 10 42 26 42 9 0 16 -5 16 -11z m26 -74 c-11 -10
-14 3 -8 33 l7 30 3 -28 c2 -16 1 -31 -2 -35z m484 23 c0 -8 -7 -15 -15 -15
-8 0 -15 -7 -15 -15 0 -8 -5 -15 -11 -15 -5 0 -7 -5 -3 -11 3 -6 15 -9 25 -6
11 3 17 1 13 -4 -3 -5 -12 -9 -20 -9 -8 0 -12 -4 -9 -10 4 -6 -1 -7 -11 -3
-11 4 -15 2 -11 -4 4 -6 -3 -13 -14 -16 -15 -4 -19 -11 -15 -24 4 -13 -2 -22
-21 -30 -15 -7 -33 -13 -41 -13 -8 0 -12 -6 -8 -15 7 -18 -11 -19 -43 -1 -14
8 -19 16 -13 20 6 3 13 2 17 -4 9 -15 25 -12 25 5 0 8 -6 15 -12 16 -10 0 -10
2 0 6 6 2 10 9 7 13 -3 5 3 14 14 20 12 6 18 16 15 25 -8 19 60 83 100 94 44
13 46 13 46 -4z m-760 -21 c0 -8 -5 -12 -10 -9 -6 4 -8 11 -5 16 9 14 15 11
15 -7z m197 -46 c-3 -8 -6 -5 -6 6 -1 11 2 17 5 13 3 -3 4 -12 1 -19z m48 2
c3 -6 -1 -7 -9 -4 -18 7 -21 14 -7 14 6 0 13 -4 16 -10z m482 -56 c-3 -3 -12
-4 -19 -1 -8 3 -5 6 6 6 11 1 17 -2 13 -5z m-544 -43 c24 -42 21 -47 -8 -13
-26 31 -30 42 -17 42 4 0 15 -13 25 -29z m34 -3 c-3 -8 -6 -5 -6 6 -1 11 2 17
5 13 3 -3 4 -12 1 -19z m548 12 c3 -5 1 -10 -4 -10 -6 0 -11 5 -11 10 0 6 2
10 4 10 3 0 8 -4 11 -10z m-319 -22 c4 -6 2 -14 -4 -16 -7 -2 -12 -10 -12 -17
0 -32 -22 -63 -41 -58 -13 4 -19 0 -19 -10 0 -9 -8 -21 -17 -26 -10 -5 -26
-31 -37 -58 -10 -26 -26 -59 -35 -73 -8 -14 -16 -29 -16 -34 0 -5 -10 -15 -21
-23 -19 -12 -23 -11 -37 10 -12 19 -13 31 -4 65 7 27 16 41 24 38 6 -3 10 0 7
7 -5 13 41 67 56 67 6 0 10 8 10 18 1 18 29 62 31 46 0 -5 7 9 15 31 l14 40
-5 -35 c-4 -31 -3 -33 9 -17 7 9 18 17 24 17 6 0 9 6 6 14 -5 12 6 19 38 25 4
0 10 -4 14 -11z m247 5 c10 -9 -23 -43 -42 -42 -12 0 -11 3 4 9 19 8 18 9 -4
9 -24 1 -24 1 -5 16 21 16 37 19 47 8z m43 -38 c4 -8 14 -15 23 -15 13 0 13
-2 2 -9 -8 -5 -26 -5 -42 1 -31 11 -37 23 -16 31 21 9 27 7 33 -8z m154 -5 c0
-5 -7 -7 -15 -4 -8 4 -15 8 -15 10 0 2 7 4 15 4 8 0 15 -4 15 -10z m-90 -42
c-13 -5 -28 -7 -34 -4 -6 2 -3 5 7 5 9 1 17 5 17 11 0 5 7 7 17 3 14 -5 12 -8
-7 -15z m95 -29 c16 -7 14 -8 -10 -3 -29 5 -29 5 -11 -15 22 -24 9 -28 -20 -6
-16 13 -17 16 -4 25 18 11 19 11 45 -1z m-238 -56 c-14 -14 -19 -15 -29 -4
-10 11 -10 12 0 7 6 -4 12 -2 12 3 0 6 8 11 17 11 16 0 16 -1 0 -17z m218 7
c4 -6 -5 -10 -20 -10 -15 0 -24 4 -20 10 3 6 12 10 20 10 8 0 17 -4 20 -10z
m-369 -29 c-4 -11 -2 -10 9 3 14 19 15 19 15 -7 0 -15 -6 -27 -12 -27 -23 1
-51 29 -45 44 8 21 40 8 33 -13z m243 -16 c6 -3 11 -31 11 -61 0 -64 -17 -87
-98 -128 -76 -38 -119 -33 -187 21 -42 33 -44 43 -9 43 26 0 26 2 20 42 -4 23
-12 48 -18 55 -6 8 -8 16 -6 19 10 9 56 -41 63 -69 7 -26 45 -40 45 -17 0 6 6
10 13 9 28 -3 39 2 33 16 -3 8 0 18 7 22 7 5 18 20 26 36 13 24 19 27 52 23
21 -2 43 -7 48 -11z m126 -77 c4 -18 7 -36 6 -40 -1 -11 7 -10 30 2 13 7 19 7
19 0 0 -5 -4 -10 -10 -10 -5 0 -7 -7 -4 -15 4 -10 -3 -18 -22 -25 -23 -9 -25
-13 -14 -20 12 -8 9 -10 -10 -11 -14 0 -19 -3 -12 -6 21 -8 13 -23 -12 -23
-13 0 -37 -7 -52 -15 -20 -10 -23 -15 -11 -15 9 0 17 -5 17 -11 0 -8 -12 -10
-35 -6 -20 3 -33 2 -30 -3 5 -8 -23 -21 -55 -26 -8 -1 -37 -7 -63 -13 -27 -6
-63 -9 -80 -6 -52 8 -131 17 -149 17 -20 -1 -20 0 -12 22 5 12 11 13 27 5 17
-8 15 -4 -7 16 -15 14 -26 28 -23 31 3 3 27 -2 54 -11 80 -28 168 -34 232 -15
65 18 161 109 182 172 15 47 24 48 34 6z m-829 -25 c-3 -7 0 -13 6 -13 6 0 9
-2 6 -5 -3 -3 -12 -3 -20 0 -19 7 -19 32 -1 32 8 0 12 -6 9 -14z m11 -36 c6
-4 14 -2 16 3 3 6 4 5 3 -2 -3 -13 -96 -20 -96 -7 0 16 53 21 77 6z m-217
-129 c0 -7 -5 -20 -10 -28 -8 -12 -10 -9 -10 13 0 15 5 27 10 27 6 0 10 -6 10
-12z m-96 -130 c11 -44 8 -53 -14 -33 -23 21 -27 55 -6 55 7 0 16 -10 20 -22z
m520 -337 c26 -27 43 -50 36 -53 -8 -2 -8 -11 -1 -31 6 -16 11 -38 11 -50 -1
-20 -2 -21 -14 -4 -7 9 -11 28 -9 41 4 17 -3 29 -22 45 -15 11 -33 21 -40 21
-17 0 -65 39 -65 52 0 7 10 2 23 -9 28 -26 68 -37 60 -16 -3 8 -12 12 -20 9
-8 -3 -11 -1 -8 5 4 5 1 16 -5 24 -7 8 -8 15 -3 15 5 0 30 -22 57 -49z"/>
<path d="M1302 1340 c0 -14 2 -19 5 -12 2 6 2 18 0 25 -3 6 -5 1 -5 -13z"/>
<path d="M1430 1978 c0 -16 23 -19 37 -5 14 13 13 15 -11 14 -14 -1 -26 -5
-26 -9z"/>
<path d="M1472 1940 c0 -14 2 -19 5 -12 2 6 2 18 0 25 -3 6 -5 1 -5 -13z"/>
<path d="M805 1921 c-3 -5 -1 -12 5 -16 5 -3 10 1 10 9 0 18 -6 21 -15 7z"/>
<path d="M545 1900 c-3 -5 -1 -10 4 -10 6 0 11 5 11 10 0 6 -2 10 -4 10 -3 0
-8 -4 -11 -10z"/>
<path d="M609 1871 c10 -18 6 -31 -10 -31 -4 0 -9 10 -12 23 -3 21 -4 20 -16
-7 -14 -35 -1 -57 23 -37 10 9 20 9 33 2 27 -14 45 -1 29 21 -7 10 -16 15 -19
11 -4 -3 -7 3 -7 15 0 13 -6 22 -15 22 -12 0 -13 -4 -6 -19z"/>
<path d="M848 1870 c-7 -17 -17 -67 -24 -120 -2 -19 -8 -48 -13 -65 l-9 -30
-1 37 c-1 20 -5 39 -10 42 -13 8 -34 -21 -25 -35 4 -8 3 -9 -4 -5 -8 5 -12 -1
-12 -15 0 -18 -2 -20 -16 -8 -14 11 -15 9 -9 -24 5 -28 4 -38 -7 -42 -19 -7
-19 -128 -1 -146 17 -17 42 -4 36 19 -3 12 5 29 21 45 14 14 26 33 26 42 0 8
4 15 10 15 15 0 63 77 55 89 -3 6 0 11 7 11 9 0 15 13 16 34 3 40 -13 57 -22
24 -3 -15 -9 -19 -15 -13 -6 6 -6 29 0 63 11 55 8 111 -3 82z"/>
<path d="M526 1835 c-3 -8 -3 -23 1 -32 5 -15 3 -14 -10 2 -12 15 -16 16 -16
5 0 -8 5 -23 12 -32 12 -15 14 -15 27 5 18 27 20 67 4 67 -7 0 -14 -7 -18 -15z"/>
<path d="M811 1834 c0 -11 3 -14 6 -6 3 7 2 16 -1 19 -3 4 -6 -2 -5 -13z"/>
<path d="M720 1770 c0 -5 5 -10 11 -10 5 0 7 5 4 10 -3 6 -8 10 -11 10 -2 0
-4 -4 -4 -10z"/>
<path d="M780 1770 c0 -5 5 -10 11 -10 5 0 7 5 4 10 -3 6 -8 10 -11 10 -2 0
-4 -4 -4 -10z"/>
<path d="M1067 1723 c-9 -9 -9 -43 1 -43 4 0 8 11 8 25 2 27 1 29 -9 18z"/>
<path d="M636 1547 c3 -10 9 -15 12 -12 3 3 0 11 -7 18 -10 9 -11 8 -5 -6z"/>
<path d="M860 1460 c0 -11 5 -20 10 -20 6 0 10 9 10 20 0 11 -4 20 -10 20 -5
0 -10 -9 -10 -20z"/>
<path d="M393 1448 c-29 -32 -53 -94 -55 -144 -3 -61 41 -128 119 -181 34 -22
79 -44 100 -48 53 -8 68 -19 58 -41 -5 -11 -7 -23 -6 -28 1 -5 -5 -16 -14 -26
-8 -9 -12 -19 -9 -23 3 -3 -3 -3 -15 0 -22 6 -30 -12 -9 -19 9 -3 9 -6 0 -11
-7 -5 -17 4 -26 21 -8 16 -22 34 -30 41 -9 7 -14 16 -11 20 2 4 -29 36 -70 72
-40 35 -81 79 -91 98 -9 19 -32 56 -50 82 -20 27 -32 53 -28 62 3 10 -2 20
-15 27 -12 6 -21 18 -21 28 0 14 -2 15 -10 2 -6 -9 -5 -19 3 -29 10 -11 8 -13
-11 -7 -20 7 -22 4 -22 -27 0 -21 7 -41 20 -52 20 -19 28 -41 10 -30 -5 3 -10
1 -10 -6 0 -6 8 -9 19 -6 13 3 18 0 15 -8 -3 -6 2 -18 10 -25 9 -7 13 -17 9
-23 -12 -20 -10 -45 3 -40 6 2 15 0 18 -6 4 -5 -3 -12 -14 -16 -41 -13 -12
-75 36 -75 13 0 24 -4 24 -10 0 -5 -7 -10 -15 -10 -8 0 -15 -4 -15 -10 0 -5 7
-10 15 -10 8 0 15 -4 15 -10 0 -5 -7 -10 -16 -10 -10 0 -12 -5 -7 -12 4 -7 9
-22 10 -32 4 -22 32 -46 48 -40 5 2 18 -3 28 -10 21 -16 13 -47 -11 -39 -12 4
-11 1 3 -9 27 -21 70 -34 61 -19 -5 7 4 11 23 11 17 0 31 -5 31 -10 0 -12 53
-1 58 12 2 4 11 8 20 8 12 0 13 -3 4 -12 -8 -8 -8 -17 -1 -31 8 -14 8 -18 0
-13 -16 10 -14 -30 4 -64 11 -22 23 -30 42 -30 14 0 24 3 21 6 -4 3 9 21 28
41 26 26 33 41 28 57 -3 11 -7 25 -8 31 -2 16 -20 33 -30 28 -4 -3 -5 4 -1 16
5 16 3 20 -9 15 -9 -3 -16 -1 -16 5 0 6 6 11 14 11 18 0 69 77 55 85 -13 9 -4
64 26 151 22 63 24 79 15 125 -11 57 -20 75 -20 40 0 -39 -49 -110 -88 -128
-21 -9 -40 -21 -43 -25 -4 -7 -54 -5 -54 2 0 1 -9 3 -20 5 -47 9 -115 125
-115 197 0 17 -4 27 -10 23 -5 -3 -10 1 -10 10 0 10 6 15 13 12 8 -3 17 8 23
29 6 19 7 34 2 34 -5 0 -6 5 -3 10 11 17 -1 11 -22 -12z m-116 -362 c-3 -7 0
-19 6 -25 8 -8 7 -11 -5 -11 -9 0 -20 5 -23 10 -9 14 1 40 16 40 6 0 9 -6 6
-14z m403 -55 c0 -5 -7 -11 -15 -15 -15 -5 -20 5 -8 17 9 10 23 9 23 -2z
m-330 -127 c0 -8 -5 -12 -10 -9 -6 4 -8 11 -5 16 9 14 15 11 15 -7z m170 -14
c0 -5 -2 -10 -4 -10 -3 0 -8 5 -11 10 -3 6 -1 10 4 10 6 0 11 -4 11 -10z m100
-30 c0 -5 -4 -10 -10 -10 -5 0 -10 5 -10 10 0 6 5 10 10 10 6 0 10 -4 10 -10z"/>
<path d="M173 1412 c-12 -38 -9 -52 9 -52 7 0 7 5 -1 14 -9 10 -8 15 4 20 8 3
14 14 12 25 -5 34 -12 32 -24 -7z"/>
<path d="M557 1399 c-25 -15 -47 -63 -47 -104 0 -46 21 -46 66 -1 28 28 34 42
34 75 0 44 -15 52 -53 30z"/>
<path d="M235 1370 c3 -5 8 -10 11 -10 2 0 4 5 4 10 0 6 -5 10 -11 10 -5 0 -7
-4 -4 -10z"/>
<path d="M129 1335 c-6 -49 -3 -82 9 -78 14 6 16 52 2 73 -5 8 -10 11 -11 5z"/>
<path d="M260 1311 c0 -5 5 -13 10 -16 6 -3 10 -2 10 4 0 5 -4 13 -10 16 -5 3
-10 2 -10 -4z"/>
<path d="M194 1193 c10 -10 46 -11 40 -1 -3 4 -15 8 -26 8 -12 0 -18 -3 -14
-7z"/>
<path d="M900 1180 c0 -5 5 -10 10 -10 6 0 10 5 10 10 0 6 -4 10 -10 10 -5 0
-10 -4 -10 -10z"/>
<path d="M877 960 c-3 -11 -3 -20 -1 -20 2 0 8 9 14 20 6 11 7 20 2 20 -6 0
-12 -9 -15 -20z"/>
<path d="M218 963 c7 -3 16 -2 19 1 4 3 -2 6 -13 5 -11 0 -14 -3 -6 -6z"/>
<path d="M0 880 c0 -10 9 -24 19 -30 23 -12 111 -14 111 -2 0 6 -107 52 -123
52 -4 0 -7 -9 -7 -20z"/>
<path d="M110 820 c20 -13 40 -13 40 0 0 6 -12 10 -27 10 -22 0 -25 -2 -13
-10z"/>
<path d="M7 813 c-6 -13 -8 -73 -2 -73 4 0 15 5 27 11 11 6 30 13 43 15 13 2
34 8 46 12 20 8 18 11 -26 25 -53 18 -82 21 -88 10z"/>
<path d="M375 790 c-3 -5 -1 -10 4 -10 6 0 11 5 11 10 0 6 -2 10 -4 10 -3 0
-8 -4 -11 -10z"/>
<path d="M708 793 c7 -3 16 -2 19 1 4 3 -2 6 -13 5 -11 0 -14 -3 -6 -6z"/>
<path d="M329 767 c6 -8 8 -17 4 -21 -4 -4 0 -4 10 0 21 8 22 20 1 28 -24 9
-28 7 -15 -7z"/>
<path d="M95 758 c-71 -18 -71 -18 -45 -32 17 -9 31 -10 44 -3 10 5 31 7 46 3
34 -6 42 1 27 25 -13 21 -14 21 -72 7z"/>
<path d="M373 739 c-7 -7 -13 -18 -13 -25 0 -11 28 -29 42 -26 4 1 10 -8 13
-19 9 -26 40 -21 40 8 1 11 7 28 14 36 14 18 7 37 -15 37 -17 0 -19 -27 -1
-33 8 -3 6 -7 -6 -12 -14 -6 -25 -1 -40 19 -18 22 -24 25 -34 15z"/>
<path d="M6 683 c-3 -4 -6 -20 -6 -36 l0 -30 82 6 c45 4 86 12 92 18 8 8 5 10
-11 5 -12 -4 -24 -2 -28 4 -3 5 2 10 11 10 11 0 14 3 8 9 -11 10 -139 23 -148
14z m64 -28 c0 -8 -9 -15 -20 -15 -22 0 -27 15 -7 23 21 9 27 7 27 -8z m30
-15 c0 -5 -4 -10 -10 -10 -5 0 -10 5 -10 10 0 6 5 10 10 10 6 0 10 -4 10 -10z"/>
<path d="M350 630 c0 -5 5 -10 10 -10 6 0 10 5 10 10 0 6 -4 10 -10 10 -5 0
-10 -4 -10 -10z"/>
<path d="M456 626 c3 -9 11 -16 16 -16 13 0 5 23 -10 28 -7 2 -10 -2 -6 -12z"/>
<path d="M13 603 c-7 -2 -13 -9 -13 -14 0 -4 6 -6 14 -3 8 3 17 1 21 -5 3 -6
22 -11 41 -11 19 0 33 4 29 9 -3 5 0 13 6 17 8 5 9 3 4 -6 -6 -10 0 -12 31 -7
21 4 45 7 52 7 6 0 12 5 12 10 0 10 -173 13 -197 3z m47 -13 c0 -5 -5 -10 -11
-10 -5 0 -7 5 -4 10 3 6 8 10 11 10 2 0 4 -4 4 -10z"/>
<path d="M70 545 c-45 -13 -45 -13 -10 -13 19 0 58 6 85 13 l50 13 -40 0 c-22
0 -60 -6 -85 -13z"/>
<path d="M160 525 c-8 -2 -33 -7 -54 -10 l-39 -7 28 -18 c26 -17 27 -18 6 -25
-11 -3 -21 -13 -21 -20 0 -18 30 -8 87 28 21 13 46 26 56 30 46 17 -4 34 -63
22z"/>
<path d="M0 465 c0 -19 5 -35 11 -35 5 0 7 -4 4 -10 -3 -5 -2 -10 3 -10 5 0
12 9 15 20 3 11 0 20 -6 20 -9 0 -9 2 -1 8 18 12 12 42 -8 42 -14 0 -18 -8
-18 -35z"/>
<path d="M173 452 c-40 -20 -73 -40 -73 -44 0 -5 36 10 80 33 44 23 80 44 80
45 0 8 -18 1 -87 -34z"/>
<path d="M260 460 c-9 -6 -10 -10 -3 -10 6 0 15 5 18 10 8 12 4 12 -15 0z"/>
<path d="M123 390 c-44 -26 -42 -34 2 -13 19 9 35 20 35 25 0 11 0 11 -37 -12z"/>
<path d="M297 386 c-4 -10 -1 -13 8 -9 8 3 12 9 9 14 -7 12 -11 11 -17 -5z"/>
<path d="M14 366 c-10 -8 -17 -17 -14 -19 3 -3 16 3 29 14 27 22 15 26 -15 5z"/>
<path d="M132 364 c-16 -11 -20 -20 -13 -32 4 -9 6 -23 4 -29 -8 -22 25 -14
44 10 10 13 27 29 38 35 17 10 15 11 -20 8 -35 -3 -37 -2 -20 10 27 20 -4 19
-33 -2z"/>
<path d="M33 337 c-19 -13 -33 -30 -33 -42 1 -18 2 -18 21 5 11 14 30 33 42
42 31 25 8 21 -30 -5z"/>
<path d="M165 288 c-16 -19 -23 -34 -16 -36 6 -2 8 -8 5 -13 -3 -6 4 -19 16
-29 12 -10 19 -24 15 -30 -3 -5 1 -13 10 -16 9 -4 14 -12 11 -19 -2 -7 4 -21
14 -30 10 -9 16 -23 14 -30 -7 -18 31 -29 53 -16 12 7 13 10 4 11 -8 0 -11 6
-7 16 5 14 4 15 -8 5 -18 -15 -30 11 -13 28 8 8 8 11 -2 11 -7 0 -10 4 -6 9 3
6 -3 15 -12 20 -16 10 -15 13 13 38 31 28 36 57 8 46 -8 -3 -14 0 -14 7 0 6
-7 18 -15 27 -12 12 -19 13 -30 3 -18 -15 -20 1 -3 18 8 8 9 12 1 12 -6 0 -23
-14 -38 -32z"/>
<path d="M59 303 c-1 -5 0 -12 1 -18 1 -5 -2 -7 -6 -2 -4 4 -18 -3 -31 -15
-22 -20 -23 -29 -23 -145 l0 -123 63 0 c56 1 60 2 43 15 -18 13 -17 14 7 20
34 9 56 33 38 44 -6 4 -11 12 -10 17 4 18 -13 43 -27 37 -8 -3 -22 -2 -31 1
-13 5 -14 9 -4 19 9 9 14 9 20 -2 5 -7 14 -10 20 -6 8 5 9 11 2 19 -6 7 -9 15
-7 17 2 2 -2 10 -9 16 -11 10 -18 8 -34 -14 -25 -31 -28 -23 -5 12 l16 25 -33
-6 c-26 -4 -30 -3 -19 5 8 6 23 11 33 11 10 0 17 8 17 20 0 11 6 20 13 20 6 0
4 5 -6 11 -9 6 -15 14 -12 20 4 5 1 9 -4 9 -6 0 -12 -3 -12 -7z m-25 -178 c-4
-8 -11 -15 -16 -15 -6 0 -5 6 2 15 16 19 21 19 14 0z"/>
<path d="M1230 228 c19 -18 34 -35 33 -38 -1 -3 0 -7 2 -8 2 -2 2 4 0 15 -2
10 -4 21 -4 25 -1 3 -16 14 -33 22 l-33 16 35 -32z"/>
<path d="M841 188 c8 -7 18 -21 22 -30 9 -26 67 -25 67 1 0 14 -9 21 -32 26
-18 4 -42 9 -53 11 -18 4 -18 3 -4 -8z"/>
<path d="M950 170 c0 -15 5 -20 18 -18 9 2 17 10 17 18 0 8 -8 16 -17 18 -13
2 -18 -3 -18 -18z"/>
<path d="M1290 172 c0 -7 -5 -10 -11 -6 -13 7 0 -17 56 -104 36 -56 43 -62 73
-62 l33 0 -31 43 c-50 68 -120 143 -120 129z"/>
<path d="M1080 106 c0 -8 7 -16 15 -20 10 -4 15 1 15 14 0 11 -7 20 -15 20 -8
0 -15 -6 -15 -14z"/>
<path d="M1965 86 c-15 -23 -15 -27 1 -52 18 -27 18 -27 -3 -16 -16 9 -24 8
-33 -3 -11 -13 -7 -15 24 -15 l36 0 0 55 c0 30 -2 55 -5 55 -2 0 -12 -11 -20
-24z"/>
<path d="M269 43 c-13 -15 -12 -15 9 -4 23 12 28 21 13 21 -5 0 -15 -7 -22
-17z"/>
<path d="M150 20 c-12 -8 -11 -10 8 -10 12 0 22 5 22 10 0 13 -11 13 -30 0z"/>
<path d="M280 20 c0 -14 26 -23 41 -15 8 6 7 10 -2 16 -19 12 -39 11 -39 -1z"/>
</g>
</svg>
